# xmcd
#
# Track frame offsets: 
#        170
#        11220
#        22511
#        36400
#        46760
#        66279
#        77751
#        86962
#        97430
#        106614
#        117524
#        130729
#        139379
#        148062
#        161562
#        173184
#
# Disc length: 2434 seconds
#
# Revision: 0
# Processed by: cddbd v1.5.2PL0 Copyright (c) Steve Scherf et al.
# Submitted via: ExactAudioCopy v1.0b1
#
DISCID=df098010
DTITLE=Troubadour Mattew - TOGETHER WE SHINE  VOLUME III
DYEAR=1995
DGENRE=Folk
TTITLE0=Destiny (A song for my wife)
TTITLE1=Only Our River Run Free  (Irish Fighting-Ballad)
TTITLE2=Red Is The Rose  ( Scottish Melody stolen from theirish, but m
TTITLE2=ade beautiful ! )
TTITLE3=Coventry Garden  ( Irish Garden Song )
TTITLE4=Athen Rye  ( Irish Ballad )
TTITLE5=May of Life  ( A song for my wife )
TTITLE6=Spencer Hill  ( Irish Ballad )
TTITLE7=Shenadoa  ( American Campfire-Song )
TTITLE8=Were You There  ( American Gospel )
TTITLE9=Kumbaya  ( Campfire-Song )
TTITLE10=Row Michael Row  ( Campfire-Song )
TTITLE11=Viva La Companie - Viva Europa!  ( Drinking-Song from the Fre
TTITLE11=nch Foreign Legion )
TTITLE12=Glory  ( American Civil Ware Song )
TTITLE13=A Seeker, Amen  ( American Gospel )
TTITLE14=Good Night My Child  ( German Good Night Song from Brahms )
TTITLE15=Come Again  ( Scottish Goodbye-Song )
EXTD=
EXTT0=
EXTT1=
EXTT2=
EXTT3=
EXTT4=
EXTT5=
EXTT6=
EXTT7=
EXTT8=
EXTT9=
EXTT10=
EXTT11=
EXTT12=
EXTT13=
EXTT14=
EXTT15=
PLAYORDER=
